<?xml version="1.0" standalone="no"?>
<!DOCTYPE svg PUBLIC "-//W3C//DTD SVG 20010904//EN"
 "http://www.w3.org/TR/2001/REC-SVG-20010904/DTD/svg10.dtd">
<svg version="1.0" xmlns="http://www.w3.org/2000/svg"
 width="175.000000pt" height="152.000000pt" viewBox="0 0 175.000000 152.000000"
 preserveAspectRatio="xMidYMid meet">

<g transform="translate(0.000000,152.000000) scale(0.100000,-0.100000)"
fill="#ffffff" stroke="none">
<path d="M263 1496 c-106 -34 -195 -115 -235 -215 -23 -56 -23 -60 -23 -521 0
-462 0 -465 23 -522 31 -76 100 -152 176 -191 l61 -32 360 0 360 0 57 27 c125
58 197 171 206 320 l5 88 -85 0 -85 0 -6 -72 c-7 -86 -39 -139 -102 -172 -38
-20 -55 -21 -340 -21 -165 0 -312 3 -327 8 -38 10 -98 65 -114 104 -20 47 -20
879 0 926 15 37 76 94 109 102 12 3 166 5 343 3 l321 -3 35 -27 c47 -36 69
-85 75 -174 l6 -74 85 0 85 0 -5 98 c-4 78 -10 108 -32 154 -35 73 -100 139
-174 175 l-57 28 -340 2 c-262 2 -350 -1 -382 -11z"/>
<path d="M1330 1000 l0 -110 -270 0 -270 0 0 -145 0 -145 270 0 269 0 3 -96 3
-96 202 168 c111 93 202 172 202 176 1 3 -91 86 -204 182 l-205 177 0 -111z"/>
</g>
</svg>
