<?xml version="1.0" standalone="no"?>
<!DOCTYPE svg PUBLIC "-//W3C//DTD SVG 20010904//EN"
 "http://www.w3.org/TR/2001/REC-SVG-20010904/DTD/svg10.dtd">
<svg version="1.0" xmlns="http://www.w3.org/2000/svg"
 width="888.000000pt" height="403.000000pt" viewBox="0 0 888.000000 403.000000"
 preserveAspectRatio="xMidYMid meet">

<g transform="translate(0.000000,403.000000) scale(0.100000,-0.100000)"
fill="#ffffff" stroke="none">
<path d="M7481 4011 c-26 -26 -35 -144 -22 -296 12 -141 27 -795 18 -795 -12
0 -69 196 -108 370 -44 196 -82 327 -110 382 -11 22 -19 58 -19 89 0 99 -69
189 -120 157 -22 -14 -23 -16 -41 -99 -11 -55 -10 -88 8 -159 5 -20 5 -58 0
-90 -5 -31 -5 -100 0 -160 4 -58 8 -260 8 -450 0 -366 3 -392 48 -406 25 -8
33 6 48 76 9 42 9 125 1 345 -6 160 -9 319 -6 355 3 36 2 95 -3 133 -5 37 -6
67 -1 67 4 0 8 -6 8 -14 0 -7 25 -82 55 -166 30 -85 62 -181 70 -214 9 -34 38
-131 65 -216 28 -85 59 -186 70 -225 21 -73 59 -129 97 -140 19 -5 23 -1 30
32 4 21 7 162 8 313 0 222 -3 292 -18 365 -13 71 -18 158 -21 413 -4 317 -7
352 -37 352 -5 0 -17 -8 -28 -19z"/>
<path d="M3155 3984 c-44 -8 -123 -23 -177 -35 -93 -21 -96 -23 -104 -53 -4
-17 -8 -146 -10 -286 -1 -140 -7 -284 -12 -320 -6 -36 -14 -149 -17 -251 l-7
-186 28 -31 29 -32 130 86 c115 76 296 174 322 174 13 0 33 60 33 98 0 29 -3
32 -32 32 -37 0 -129 -41 -212 -94 -72 -46 -151 -86 -170 -86 -9 0 -23 11 -32
25 -21 32 -15 160 11 222 21 50 70 79 200 118 159 47 173 54 185 91 11 32 1
74 -18 74 -14 0 -137 -38 -222 -69 -122 -44 -127 -43 -136 25 -10 80 4 232 24
274 23 48 92 69 228 69 79 1 104 4 114 16 18 22 25 108 11 134 -14 25 -46 26
-166 5z"/>
<path d="M4439 3923 c-129 -66 -133 -69 -220 -169 -66 -76 -89 -110 -89 -131
0 -15 -9 -46 -19 -68 -10 -23 -26 -97 -36 -167 -16 -117 -16 -130 -1 -190 9
-35 16 -74 16 -87 0 -32 23 -71 70 -116 37 -36 48 -41 123 -52 45 -7 94 -12
109 -13 46 0 233 88 277 130 22 21 49 43 60 49 11 6 37 39 56 74 20 34 50 76
66 93 42 44 63 159 57 319 -4 105 -8 128 -32 183 -31 66 -80 118 -144 151 -42
22 -142 61 -154 61 -5 0 -67 -30 -139 -67z m278 -144 c66 -32 89 -71 97 -164
9 -93 -6 -200 -34 -254 -26 -50 -135 -171 -179 -199 -20 -12 -73 -34 -119 -48
-69 -22 -96 -26 -160 -22 -71 5 -80 7 -115 40 l-38 36 -1 98 c-1 55 3 126 9
159 20 118 117 283 176 301 12 3 50 19 84 35 107 52 195 57 280 18z"/>
<path d="M1698 3969 c-9 -5 -36 -41 -61 -81 -25 -40 -58 -84 -72 -98 -15 -14
-48 -68 -74 -120 -26 -52 -67 -128 -91 -168 -25 -40 -51 -84 -58 -97 -7 -14
-17 -25 -23 -25 -5 0 -9 86 -9 214 0 118 -3 221 -6 230 -10 27 -43 18 -64 -16
-19 -30 -20 -48 -18 -188 1 -85 -2 -303 -7 -485 -10 -342 -11 -423 -6 -465 1
-14 0 -65 -4 -115 -5 -71 -3 -94 8 -108 18 -21 61 -15 74 11 4 10 8 143 8 297
1 291 7 337 48 420 25 51 56 95 67 95 9 0 94 -251 160 -475 23 -77 48 -147 56
-156 22 -24 65 -30 92 -13 38 25 30 90 -29 245 -158 415 -190 513 -183 554 11
69 31 112 101 219 142 218 149 234 139 288 -7 39 -23 51 -48 37z"/>
<path d="M3484 3960 c-4 -8 -8 -60 -9 -115 -1 -55 -8 -118 -15 -140 -12 -35
-16 -131 -10 -205 3 -30 -18 -430 -26 -517 -6 -56 -5 -63 19 -86 28 -29 81
-42 132 -33 78 15 350 231 410 326 30 48 58 135 50 159 -9 30 -65 79 -103 92
-19 6 -58 14 -86 18 -50 6 -51 7 -54 41 -3 39 41 121 109 202 45 53 72 137 58
178 -5 14 -25 43 -45 64 l-36 39 -106 -8 c-107 -8 -144 -9 -234 -3 -35 2 -50
-1 -54 -12z m356 -168 c0 -42 -50 -131 -94 -167 -23 -18 -57 -54 -76 -80 -53
-71 -118 -97 -140 -56 -14 27 -12 86 5 151 8 30 15 69 15 85 1 57 18 66 200
120 42 12 47 11 68 -8 12 -11 22 -32 22 -45z m44 -453 c35 -41 41 -71 22 -108
-22 -41 -165 -162 -234 -197 l-55 -28 -35 20 c-20 10 -45 34 -55 52 -19 31
-19 39 -6 105 11 59 20 79 49 109 32 34 44 39 135 57 139 27 149 26 179 -10z"/>
<path d="M2560 3959 c-84 -5 -173 -16 -210 -27 l-65 -18 1 -46 c0 -68 13 -78
87 -71 54 5 64 3 80 -15 34 -38 36 -87 21 -422 -16 -324 -14 -543 5 -594 13
-33 36 -33 58 1 16 24 18 59 19 353 0 179 4 396 9 484 9 190 15 200 110 217
99 18 109 22 130 61 17 32 18 39 5 62 -15 29 -4 29 -250 15z"/>
<path d="M5172 3950 c-6 -11 -12 -30 -12 -44 0 -13 -8 -34 -18 -47 -11 -13
-24 -46 -31 -74 -7 -27 -23 -74 -37 -104 -13 -29 -24 -70 -24 -91 0 -21 -7
-55 -16 -76 -9 -20 -24 -86 -34 -145 -10 -59 -33 -157 -50 -218 -27 -94 -31
-125 -28 -192 3 -85 16 -106 50 -88 32 17 45 59 41 129 -4 54 0 73 19 109 38
74 64 86 174 85 55 -1 105 -6 118 -14 35 -18 64 -78 77 -161 13 -83 31 -111
68 -107 55 7 47 103 -24 268 -22 52 -35 98 -35 126 0 24 -11 78 -25 120 -27
81 -89 363 -100 454 -4 30 -14 63 -23 73 -21 24 -74 22 -90 -3z m59 -271 c4
-13 7 -42 8 -65 1 -22 10 -74 21 -115 37 -139 20 -179 -75 -179 -69 0 -90 22
-81 82 14 100 25 146 45 202 37 104 67 131 82 75z"/>
<path d="M2042 3933 c-6 -16 -13 -44 -17 -64 -3 -21 -12 -42 -19 -48 -8 -7
-22 -47 -31 -89 -10 -42 -28 -106 -42 -142 -14 -36 -25 -82 -24 -104 0 -21 -8
-66 -18 -100 -10 -34 -28 -122 -40 -196 -12 -74 -37 -202 -56 -285 -32 -144
-41 -218 -37 -315 3 -60 15 -79 37 -60 36 30 49 74 56 193 6 103 11 126 36
175 42 83 93 112 221 126 47 5 57 2 77 -18 29 -29 43 -78 52 -173 6 -77 18
-97 54 -91 16 2 25 15 35 48 17 57 7 119 -42 262 -24 69 -34 114 -31 138 2 19
-6 80 -19 135 -29 124 -59 310 -78 478 -8 70 -19 134 -26 142 -7 8 -27 15 -45
15 -26 0 -35 -5 -43 -27z m51 -384 c4 -46 15 -125 23 -176 19 -105 14 -150
-20 -182 -21 -20 -74 -41 -103 -41 -42 0 -56 86 -28 165 8 22 15 56 15 75 0
36 55 215 73 238 21 26 32 3 40 -79z"/>
<path d="M7940 3951 c-60 -17 -204 -275 -221 -393 -5 -37 -22 -105 -38 -151
-37 -107 -56 -319 -48 -516 8 -197 18 -225 132 -403 57 -88 90 -108 178 -108
63 1 84 11 154 81 97 96 202 356 203 503 1 28 7 92 15 141 10 70 11 96 2 114
-18 37 -32 36 -75 -3 -61 -56 -114 -74 -248 -86 -65 -6 -124 -13 -131 -15 -17
-6 -26 -60 -18 -116 9 -63 40 -89 83 -69 15 7 68 15 118 18 l92 5 12 -38 c27
-83 -12 -182 -115 -282 -82 -82 -106 -89 -179 -53 -47 23 -77 63 -114 152 -35
86 -43 295 -17 450 23 139 77 322 121 413 39 80 118 165 153 165 20 0 111 -70
164 -128 28 -30 29 -30 48 -11 22 22 26 99 8 163 -11 38 -70 111 -118 145 -29
20 -123 33 -161 22z"/>
<path d="M905 3926 c-21 -13 -79 -68 -127 -123 -76 -85 -90 -107 -109 -168
-60 -195 -109 -518 -112 -730 -1 -74 2 -97 19 -125 37 -64 85 -49 166 54 38
48 179 156 205 156 6 0 23 -14 37 -31 48 -57 33 -125 -59 -264 -59 -89 -117
-147 -214 -215 -73 -50 -86 -79 -78 -163 5 -61 24 -81 65 -72 89 19 172 129
337 445 l108 205 -7 95 c-9 125 -20 166 -49 174 -12 3 -56 6 -97 6 -93 0 -129
-17 -222 -107 -78 -74 -98 -77 -110 -18 -10 47 6 226 27 308 46 177 141 321
239 362 37 16 56 3 88 -58 21 -42 43 -56 61 -38 15 15 10 149 -9 229 -23 101
-77 127 -159 78z"/>
<path d="M5602 3943 c-7 -3 -22 -24 -34 -46 -20 -40 -21 -49 -12 -217 5 -96 9
-312 9 -480 0 -273 2 -308 18 -337 19 -36 41 -42 52 -15 5 9 11 105 15 212 4
107 8 196 9 198 7 14 36 -12 87 -76 104 -129 257 -297 273 -297 7 0 23 12 34
26 32 44 10 88 -103 204 -109 111 -180 207 -180 241 0 28 63 104 104 126 47
24 95 82 145 172 39 72 43 84 38 128 -9 69 -41 116 -96 141 -41 18 -58 19
-172 13 -69 -4 -137 -3 -150 2 -13 5 -30 7 -37 5z m296 -162 c32 -30 41 -55
22 -66 -6 -4 -19 -24 -30 -45 -31 -60 -196 -220 -228 -220 -12 0 -22 83 -22
198 0 105 10 123 77 141 109 28 143 26 181 -8z"/>
<path d="M6184 3942 c-27 -18 -32 -110 -30 -613 l1 -517 25 -21 c14 -11 32
-20 41 -21 60 -1 293 215 395 365 55 81 64 101 87 200 43 178 44 209 12 325
-35 127 -61 164 -153 213 -56 30 -94 41 -189 57 -127 21 -172 24 -189 12z
m294 -172 c57 -25 106 -71 135 -125 18 -32 22 -57 22 -130 0 -88 -1 -92 -45
-170 -80 -142 -255 -355 -291 -355 -11 0 -27 8 -37 18 -16 16 -17 46 -17 363
l0 345 29 44 28 43 64 -6 c36 -4 86 -16 112 -27z"/>
<path d="M6855 3918 c-33 -90 -33 -61 -6 -878 12 -373 12 -370 67 -370 19 0
24 7 30 47 4 26 4 120 -1 208 -4 88 -9 339 -11 557 -3 350 -5 400 -20 423 -17
26 -51 34 -59 13z"/>
<path d="M4600 2846 c0 -7 8 -20 18 -29 18 -16 174 -97 187 -97 15 0 -20 33
-82 76 -68 49 -123 71 -123 50z"/>
<path d="M3950 2766 c0 -2 25 -20 55 -40 64 -42 75 -31 13 14 -35 26 -68 38
-68 26z"/>
<path d="M4851 2718 c12 -24 22 -61 23 -83 1 -39 3 -41 48 -56 26 -8 51 -18
54 -22 11 -11 -16 -35 -46 -42 -20 -4 -27 -11 -23 -21 4 -10 -3 -14 -22 -14
-27 0 -28 -1 -10 -20 17 -18 16 -19 -10 -26 -16 -4 -22 -9 -15 -14 11 -7 -28
-24 -115 -51 -22 -6 -53 -16 -68 -22 l-28 -10 28 -17 c34 -20 157 -88 196
-108 15 -7 27 -18 27 -23 0 -6 17 -17 37 -26 33 -13 36 -16 20 -28 -9 -7 -17
-19 -17 -28 0 -24 -17 -30 -56 -17 -19 7 -37 10 -40 7 -3 -2 7 -18 21 -35 l26
-31 -37 -16 c-20 -8 -38 -15 -40 -15 -8 0 -314 -150 -314 -154 0 -2 43 -40 95
-84 70 -60 90 -82 77 -85 -9 -3 3 -5 28 -6 l45 -1 -25 -20 -25 -20 28 10 c36
13 59 13 94 -1 35 -13 35 -13 -125 -74 -67 -26 -129 -44 -137 -41 -9 3 -15 0
-15 -9 0 -8 -4 -15 -9 -15 -5 0 -16 -3 -24 -6 -10 -3 -17 2 -20 13 -4 14 -5
14 -6 -4 -1 -31 -15 -29 -41 5 l-22 27 7 -40 c4 -22 16 -76 26 -120 26 -109
24 -114 -17 -69 l-35 39 5 -31 c3 -18 8 -43 11 -57 6 -24 3 -26 -79 -53 -47
-16 -86 -31 -86 -35 0 -3 26 -17 58 -31 l57 -25 -158 -79 -159 -80 284 -93
c365 -120 335 -109 314 -124 -16 -12 -12 -17 37 -49 58 -39 94 -47 727 -168
247 -47 583 -113 685 -134 39 -8 86 -18 105 -21 19 -3 67 -13 106 -21 71 -15
72 -16 78 -53 7 -48 48 -86 108 -101 26 -7 49 -18 52 -26 3 -8 12 -14 20 -14
7 0 16 -6 19 -13 11 -29 151 -41 182 -16 6 4 27 4 47 0 75 -17 135 4 163 59 9
17 17 30 19 30 1 0 79 -15 172 -34 93 -19 210 -40 259 -47 116 -18 435 -18
540 0 183 30 375 103 506 192 75 50 192 164 238 232 122 179 193 438 177 649
-34 447 -355 790 -926 988 -62 22 -207 55 -474 109 -163 32 -292 63 -294 69
-2 7 7 12 22 12 15 0 26 6 26 14 0 7 3 27 6 43 5 27 2 33 -31 53 -28 17 -53
23 -105 24 -38 0 -73 -3 -79 -9 -5 -5 -13 -27 -16 -48 -7 -34 -5 -39 14 -44
24 -6 29 -23 6 -23 -8 0 -92 16 -187 35 -95 19 -416 82 -713 140 -297 58 -593
117 -658 131 -146 30 -438 64 -552 64 l-85 0 21 -42z m314 -33 c103 -12 1640
-306 1834 -351 21 -4 23 -9 17 -45 -16 -103 -27 -135 -48 -144 -28 -13 -88
-101 -88 -129 0 -11 -4 -28 -10 -36 -7 -12 -12 -11 -31 5 -24 21 -18 4 10 -28
14 -16 13 -27 -3 -110 -22 -109 -22 -110 -64 -140 l-32 -24 -191 40 c-190 39
-191 39 -217 20 -23 -17 -31 -44 -84 -298 -32 -153 -55 -289 -52 -302 4 -13
14 -27 23 -32 9 -5 99 -26 200 -47 l183 -38 24 -36 24 -36 -30 -144 c-17 -79
-30 -148 -30 -152 0 -4 -24 -8 -54 -8 -90 0 -122 -38 -147 -178 -7 -41 -18
-76 -25 -79 -7 -3 -73 7 -146 22 -73 15 -144 29 -158 31 -125 22 -1306 255
-1320 261 -10 4 0 12 30 26 l45 20 -313 105 c-173 57 -310 108 -305 112 4 5
69 38 143 76 123 61 142 68 215 73 l80 6 -95 29 -95 29 35 16 c23 10 73 17
151 19 l116 4 122 -61 c66 -34 121 -59 121 -57 0 2 -51 34 -113 70 l-113 65
-110 8 -109 8 105 29 c130 36 132 37 89 51 -23 8 -35 19 -37 34 -2 13 -12 26
-23 28 -31 9 -24 23 33 66 25 18 37 35 35 48 -2 17 13 26 82 53 l85 34 53 -19
c52 -18 65 -15 41 9 -9 9 -4 12 23 13 30 0 26 3 -35 25 -200 69 -310 119 -363
162 l-56 45 114 54 c97 46 117 52 139 43 30 -12 179 -50 194 -50 6 1 -24 19
-66 41 -43 21 -78 42 -78 45 0 3 15 11 34 19 25 11 43 12 67 5 19 -6 35 -10
36 -10 2 0 3 9 3 20 0 31 21 33 102 11 41 -12 102 -21 135 -21 55 0 73 -6 209
-74 82 -41 150 -73 152 -71 5 5 -76 59 -128 85 -25 12 -62 41 -82 63 -41 44
-33 42 -238 51 -90 4 -90 4 -90 21 0 9 -7 18 -15 21 -8 4 -15 15 -15 25 0 15
7 19 35 19 41 0 44 9 13 37 -30 27 -101 62 -218 107 -52 21 -98 41 -103 45
-10 10 145 60 203 65 59 6 59 6 30 17 -24 10 -24 11 -6 25 17 12 18 14 3 14
-16 0 -25 20 -9 20 4 0 13 4 21 9 12 8 12 12 2 25 -12 14 -9 22 13 57 15 22
26 42 24 43 -2 2 -33 11 -70 20 -67 18 -68 19 -68 51 0 38 11 46 60 40 19 -2
98 -12 175 -20z m1908 -225 c-3 -11 -14 -20 -24 -20 -21 0 -22 1 -13 24 9 25
43 21 37 -4z m75 -18 c3 -20 0 -23 -25 -20 -20 2 -29 9 -31 26 -3 20 0 23 25
20 20 -2 29 -9 31 -26z m62 -11 c0 -23 -9 -31 -26 -24 -14 5 -19 34 -8 46 11
10 34 -5 34 -22z m-94 -56 c-26 -19 -42 -19 -26 0 7 8 20 15 29 15 13 -1 13
-3 -3 -15z m4 -25 c-8 -5 -22 -10 -30 -10 -13 0 -13 1 0 10 8 5 22 10 30 10
13 0 13 -1 0 -10z m-14 -35 c-11 -8 -25 -15 -30 -15 -6 0 -2 7 8 15 11 8 25
15 30 15 6 0 2 -7 -8 -15z m376 -75 c412 -82 523 -116 729 -222 518 -265 729
-740 545 -1228 -116 -311 -361 -506 -741 -591 -115 -26 -391 -36 -531 -20
-110 12 -475 80 -486 90 -3 3 3 46 13 96 19 84 19 92 4 132 -13 33 -27 49 -56
63 -21 11 -45 20 -54 20 -8 0 -15 3 -15 6 0 12 72 359 75 362 2 2 27 -1 56 -7
47 -10 56 -10 79 7 27 20 21 0 115 450 34 166 31 175 -55 199 -46 12 -59 20
-56 32 3 9 8 28 12 43 l6 28 47 -38 c46 -37 42 -25 -11 33 -27 29 -37 65 -19
65 4 0 21 -10 37 -22 l29 -22 -20 24 c-11 14 -26 30 -34 35 -11 9 -9 29 8 116
19 95 20 111 8 158 -7 29 -19 56 -26 60 -10 6 -8 28 5 99 10 51 21 92 25 92 4
0 144 -27 311 -60z m-384 23 c22 -5 23 -9 17 -51 -4 -24 -11 -54 -16 -66 -8
-17 -9 -15 -4 12 3 17 8 46 12 64 4 21 3 29 -5 24 -6 -3 -16 -31 -22 -61 -9
-43 -16 -55 -30 -55 -29 0 -32 14 -18 80 12 62 18 67 66 53z m-49 -204 c27 -5
57 -19 67 -30 20 -22 23 0 -61 -402 -25 -120 -45 -222 -44 -225 0 -4 7 7 14
23 l13 30 7 -38 c9 -47 -27 -225 -52 -264 l-18 -27 -6 29 c-4 17 -7 25 -8 20
-2 -18 -112 -540 -117 -557 -8 -28 -37 -23 -31 4 3 13 36 167 72 343 37 176
89 428 116 560 86 411 92 443 85 461 -4 9 -9 15 -11 12 -3 -2 -61 -276 -130
-609 -69 -332 -134 -642 -144 -689 l-18 -85 -32 2 c-18 0 -35 3 -37 6 -3 2 15
101 40 218 25 118 48 233 52 255 l6 41 -49 -4 c-34 -4 -60 0 -81 11 -42 22
-41 11 1 -15 21 -13 24 -18 10 -14 -27 7 -26 -18 3 -41 16 -13 16 -15 2 -10
-27 8 -22 -1 10 -19 27 -16 27 -16 2 -11 -24 5 -24 4 -6 -9 11 -8 16 -15 10
-15 -5 0 -1 -7 9 -14 11 -8 14 -17 8 -20 -5 -4 -8 -17 -5 -31 2 -13 -7 -76
-21 -140 -13 -63 -26 -129 -27 -145 -3 -35 -28 -41 -28 -7 0 13 13 84 29 158
l30 134 -23 51 c-13 28 -58 104 -100 168 -82 127 -102 180 -86 238 16 57 43
83 199 188 82 55 153 105 159 112 5 7 24 83 42 168 43 210 45 212 149 189z
m-485 -388 c110 -23 126 -29 112 -40 -10 -9 -28 -11 -51 -7 -39 8 -46 0 -12
-14 20 -8 18 -9 -13 -10 -19 -1 -29 -4 -22 -7 21 -8 13 -23 -14 -23 -14 0 -23
-4 -20 -8 3 -5 -4 -16 -16 -26 -16 -14 -32 -17 -82 -12 -48 4 -55 3 -35 -5
l26 -10 -18 -90 c-11 -50 -21 -94 -24 -98 -2 -5 -17 -6 -32 -3 -45 8 -22 -6
43 -26 47 -15 59 -22 57 -38 -1 -10 5 -23 14 -28 12 -7 13 -10 2 -17 -10 -6
-5 -11 16 -20 l30 -12 -25 -7 c-24 -6 -24 -7 10 -15 l35 -9 -30 -6 -30 -6 43
-14 c41 -13 57 -30 28 -30 -20 0 -298 59 -303 64 -5 5 104 533 113 548 6 10
13 9 198 -31z m589 -122 c20 -5 37 -15 37 -22 0 -22 -107 -525 -115 -536 -4
-7 -14 -10 -23 -7 -10 2 -29 7 -44 10 -16 4 -28 11 -28 16 0 6 3 9 8 9 56 -9
98 57 57 91 -18 15 -11 28 22 41 23 9 24 11 10 22 -15 11 -15 19 -2 82 24 113
25 115 43 115 16 1 16 1 0 14 -24 17 -23 43 1 51 11 3 21 18 23 36 4 24 -1 35
-24 54 -44 37 -35 44 35 24z m-663 -54 c0 -3 -9 -23 -20 -45 -12 -24 -20 -59
-20 -90 0 -38 -4 -50 -15 -50 -8 0 -15 4 -15 9 0 13 29 152 35 169 4 11 35 18
35 7z m615 -13 c0 -18 -20 -15 -23 4 -3 10 1 15 10 12 7 -3 13 -10 13 -16z
m-85 -406 c0 -8 -4 -17 -9 -21 -12 -7 -24 12 -16 25 9 15 25 12 25 -4z m-365
-491 c66 -14 154 -32 195 -41 135 -28 143 -44 105 -220 -20 -97 -30 -123 -51
-141 -14 -13 -31 -23 -39 -23 -26 0 -370 71 -399 82 -54 21 -58 56 -27 201 15
70 30 129 32 130 16 13 54 37 59 37 3 0 59 -11 125 -25z"/>
<path d="M5395 2450 c-12 -20 16 -30 87 -30 79 0 98 15 30 24 -26 4 -61 9 -78
12 -19 4 -35 1 -39 -6z"/>
<path d="M5200 2340 c0 -5 23 -10 50 -10 28 0 50 5 50 10 0 6 -22 10 -50 10
-27 0 -50 -4 -50 -10z"/>
<path d="M6254 2324 c14 -36 76 -143 88 -150 16 -10 5 16 -38 93 -34 61 -65
97 -50 57z"/>
<path d="M6340 2311 c0 -15 30 -61 40 -61 5 0 6 9 3 19 -6 24 -43 60 -43 42z"/>
<path d="M6204 2262 c15 -30 56 -70 56 -56 0 15 -50 84 -61 84 -5 0 -3 -12 5
-28z"/>
<path d="M6738 2157 c-7 -6 -30 -23 -51 -37 -21 -14 -40 -36 -44 -50 -3 -14
-15 -41 -26 -60 l-20 -35 28 25 c50 44 65 60 65 68 0 12 52 58 73 65 20 8 23
37 3 37 -8 0 -21 -6 -28 -13z"/>
<path d="M5971 2039 c0 -36 -4 -87 -7 -113 -4 -28 -3 -46 3 -46 14 0 22 114
13 175 l-7 50 -2 -66z"/>
<path d="M5220 2080 c38 -12 109 -12 90 0 -8 5 -37 9 -65 9 -40 -1 -45 -3 -25
-9z"/>
<path d="M6280 1958 c-69 -45 -216 -132 -327 -194 -177 -98 -353 -208 -353
-221 0 -5 60 26 90 47 29 21 247 140 255 140 10 0 5 -85 -10 -163 -8 -43 -15
-91 -14 -105 1 -33 24 80 42 201 l12 87 90 52 c119 67 366 240 343 238 -2 0
-59 -37 -128 -82z"/>
<path d="M5470 1990 c0 -6 10 -14 23 -19 12 -5 45 -19 72 -32 28 -13 55 -25
60 -28 6 -2 4 4 -4 13 -27 33 -151 87 -151 66z"/>
<path d="M5215 1304 c24 -18 179 -68 195 -62 14 4 -113 54 -172 67 -39 9 -41
8 -23 -5z"/>
<path d="M5030 1305 c0 -12 101 -54 151 -63 30 -6 68 -13 84 -17 l30 -6 -27
15 c-15 9 -53 22 -85 30 -32 7 -75 21 -97 30 -39 16 -56 20 -56 11z"/>
<path d="M5918 1062 c-28 -41 -68 -117 -68 -128 0 -20 36 29 66 89 39 77 40
97 2 39z"/>
<path d="M5140 953 c-92 -88 -131 -135 -93 -114 16 9 74 66 163 164 60 66 23
40 -70 -50z"/>
<path d="M5600 852 c6 -13 41 -53 76 -90 36 -37 60 -57 54 -44 -6 13 -41 53
-76 90 -36 37 -60 57 -54 44z"/>
<path d="M6282 841 c-39 -29 -60 -51 -47 -51 13 0 95 61 95 70 0 14 -3 13 -48
-19z"/>
<path d="M5540 854 c0 -16 79 -98 87 -90 4 4 -14 28 -40 54 -26 26 -47 42 -47
36z"/>
<path d="M5680 853 c0 -17 79 -100 80 -83 0 9 -18 34 -40 55 -22 21 -40 34
-40 28z"/>
<path d="M6313 795 c-44 -30 -89 -65 -99 -76 l-19 -22 25 13 c59 30 199 140
179 140 -3 0 -41 -25 -86 -55z"/>
<path d="M5770 820 c0 -11 31 -42 36 -37 3 2 2 11 -2 20 -6 17 -34 31 -34 17z"/>
<path d="M6345 728 c-32 -23 -54 -43 -47 -46 12 -4 90 46 111 72 24 28 -4 17
-64 -26z"/>
<path d="M5921 696 c2 -2 31 -20 64 -39 33 -19 69 -45 80 -57 11 -12 43 -33
70 -46 29 -14 40 -17 26 -7 -13 9 -44 39 -70 66 -48 52 -108 86 -150 87 -13 0
-22 -2 -20 -4z"/>
<path d="M6250 530 c0 -5 7 -10 16 -10 8 0 12 5 9 10 -3 6 -10 10 -16 10 -5 0
-9 -4 -9 -10z"/>
<path d="M7610 2152 c0 -5 7 -15 15 -22 24 -20 17 -32 -17 -28 l-33 3 -5 -54
-6 -55 61 -57 c33 -31 72 -67 88 -79 15 -12 27 -27 27 -35 0 -7 23 -34 51 -59
28 -25 49 -46 46 -46 -3 0 -73 32 -157 70 -84 39 -156 70 -161 70 -8 0 -28
-41 -43 -86 -6 -18 47 -93 227 -321 17 -22 -1 -14 -35 15 -76 65 -199 154
-205 149 -3 -4 22 -49 56 -101 66 -102 75 -122 37 -87 -24 23 -25 23 -75 6
-42 -13 -54 -23 -65 -50 -8 -18 -19 -36 -25 -40 -9 -5 -9 -10 0 -21 9 -11 8
-14 -7 -14 -16 0 -15 -2 4 -23 30 -32 28 -37 -10 -26 -42 12 -45 6 -16 -33 42
-56 43 -60 13 -52 -25 6 -26 5 -16 -14 15 -27 14 -32 -4 -32 -21 0 -19 -13 5
-28 17 -10 28 -8 73 14 l52 25 -55 -53 c-31 -29 -75 -70 -98 -91 -36 -33 -55
-67 -36 -67 8 0 208 107 257 137 21 14 37 18 37 12 0 -7 11 -27 25 -45 37 -48
30 -52 -8 -6 l-34 40 -161 -136 c-89 -75 -160 -138 -158 -140 2 -2 25 0 51 3
31 5 59 18 86 41 47 39 62 45 31 11 -12 -13 -22 -26 -22 -29 0 -12 57 6 78 25
12 11 22 16 22 11 0 -15 -53 -61 -70 -61 -8 0 -52 -17 -98 -38 -86 -40 -92
-54 -22 -55 l35 -1 -45 -24 -45 -24 55 -1 55 -2 -65 -31 c-54 -26 -61 -32 -40
-34 14 -2 45 -6 70 -9 l45 -6 -35 -13 c-102 -37 -102 -39 -10 -45 l85 -5 -78
-24 c-88 -28 -85 -35 18 -46 l70 -8 -147 -22 c-81 -12 -151 -24 -154 -28 -4
-3 5 -12 20 -18 l26 -12 -21 -23 c-27 -28 -33 -26 137 -58 266 -51 515 -54
727 -9 l78 16 -38 39 c-47 49 -31 50 19 1 l38 -37 94 38 c93 37 216 107 216
124 0 4 -6 14 -12 21 -11 10 -6 11 22 6 32 -6 39 -2 79 38 48 50 45 56 -26 71
-17 4 -37 13 -43 21 -9 11 -4 11 34 0 25 -8 54 -18 65 -24 17 -9 24 -5 50 26
38 47 95 152 86 161 -4 4 -23 13 -43 19 -33 11 -33 12 -7 9 17 -3 38 -8 47
-11 18 -7 33 18 45 78 5 23 2 27 -17 27 -12 0 -47 8 -78 17 -65 19 -45 31 23
14 87 -22 91 -20 104 58 6 39 11 84 11 100 0 30 -1 31 -45 31 -25 0 -45 5 -45
10 0 6 20 10 45 10 l45 0 0 66 c0 81 -25 196 -50 226 -10 13 -38 28 -62 34
l-43 12 48 1 47 1 -26 53 c-40 78 -80 132 -158 215 -79 83 -113 102 -183 102
-26 0 -59 4 -73 8 -19 5 -9 8 40 12 l65 5 -63 33 c-35 18 -66 40 -69 48 -13
35 -269 138 -459 184 -71 17 -137 33 -146 36 -10 3 -18 1 -18 -4z m113 -541
c67 -66 120 -122 117 -124 -7 -7 -212 178 -241 216 -46 60 8 20 124 -92z m677
43 l35 -14 -35 5 c-19 3 -39 10 -44 15 -14 14 2 12 44 -6z m5 -36 c39 -14 43
-17 17 -13 -18 2 -52 14 -75 25 -48 22 -17 16 58 -12z m-79 -13 c25 -19 15
-19 -27 0 -25 10 -29 14 -13 15 11 0 29 -7 40 -15z m-66 -25 c19 -11 28 -19
20 -19 -8 0 -31 8 -50 19 -19 11 -28 19 -20 19 8 0 31 -8 50 -19z m-569 -191
c13 -26 7 -24 -22 7 -17 19 -19 23 -6 18 10 -3 22 -15 28 -25z m348 -156 c-87
-94 -111 -105 -30 -15 40 45 76 80 79 77 3 -2 -19 -31 -49 -62z m50 -20 c-90
-94 -110 -113 -118 -113 -5 0 20 28 133 147 28 29 52 50 55 47 3 -2 -29 -39
-70 -81z m-98 50 c-12 -24 -70 -78 -75 -72 -5 5 71 89 80 89 3 0 0 -8 -5 -17z
m180 -70 c-13 -24 -81 -89 -81 -78 0 8 80 95 87 95 2 0 -1 -8 -6 -17z m-490
-171 c10 -23 19 -48 19 -54 0 -21 -48 79 -54 113 -5 31 -5 32 5 9 6 -14 19
-44 30 -68z m719 -2 c24 -8 24 -8 -7 -9 -17 -1 -35 4 -38 9 -7 11 9 11 45 0z
m-60 -15 c25 -14 24 -14 -10 -8 -19 3 -44 10 -55 14 -17 6 -15 8 10 8 17 0 41
-6 55 -14z m-785 -176 c-9 -17 -19 -28 -22 -25 -6 6 23 56 32 56 3 0 -2 -14
-10 -31z m311 -233 c20 -37 33 -70 31 -72 -4 -5 -76 124 -90 161 l-7 20 16
-20 c9 -11 31 -51 50 -89z m-411 4 c-27 -27 -51 -47 -54 -44 -6 6 87 94 98 94
3 0 -17 -22 -44 -50z m728 -47 c7 -4 32 -11 57 -14 43 -7 42 -7 -10 -4 -58 3
-137 18 -147 28 -8 8 86 -1 100 -10z"/>
<path d="M7426 1508 c-7 -28 0 -34 48 -41 l39 -6 -33 34 c-40 41 -46 42 -54
13z"/>
<path d="M6961 2018 c-5 -13 -20 -81 -35 -153 -15 -71 -28 -134 -30 -140 -2
-5 -4 -14 -4 -19 0 -5 -8 -14 -17 -19 -14 -8 -15 -11 -4 -18 10 -6 7 -9 -11
-9 -20 0 -22 -2 -10 -10 12 -8 10 -10 -10 -11 -23 0 -23 -1 -5 -9 17 -7 16 -9
-10 -10 -26 -1 -27 -3 -10 -9 19 -8 18 -9 -5 -12 -14 -3 -24 -10 -22 -17 1 -6
-8 -13 -20 -13 -19 -1 -17 -3 7 -9 l30 -8 -35 -2 c-33 -2 -32 -3 12 -10 26 -5
60 -18 74 -29 15 -12 29 -20 30 -18 4 4 114 524 114 538 0 19 -31 8 -39 -13z"/>
<path d="M6702 1501 c-68 -23 -123 -68 -141 -115 -26 -68 17 -150 108 -208 52
-33 72 -36 47 -9 -17 19 -17 19 3 14 11 -3 34 0 52 6 31 11 31 10 24 -17 l-6
-27 37 35 c73 69 98 183 60 269 -18 38 -41 58 -34 29 4 -19 -8 -19 -53 1 -37
17 -39 20 -23 30 18 10 18 10 -1 10 -11 0 -44 -8 -73 -18z m71 -72 c96 -49 61
-189 -47 -189 -14 0 -40 13 -58 29 -27 24 -33 36 -33 71 0 72 76 121 138 89z"/>
<path d="M6680 1390 c-11 -11 -20 -33 -20 -49 0 -71 80 -101 127 -47 28 33 29
56 2 90 -26 33 -79 36 -109 6z m90 -29 c20 -38 -16 -76 -57 -60 -17 6 -23 16
-23 38 0 16 6 32 13 34 27 12 57 6 67 -12z"/>
<path d="M6458 1659 c-48 -18 -47 -88 2 -104 57 -18 99 54 55 95 -12 11 -23
20 -26 19 -2 0 -16 -5 -31 -10z m32 -49 c0 -21 -15 -27 -25 -10 -7 12 2 30 16
30 5 0 9 -9 9 -20z"/>
<path d="M6332 1442 c-6 -30 -12 -63 -11 -75 0 -12 7 5 15 38 8 33 13 66 12
75 -2 8 -9 -9 -16 -38z"/>
<path d="M6369 1249 c-61 -22 -28 -119 35 -103 49 12 62 71 21 98 -13 9 -26
16 -27 15 -2 0 -15 -5 -29 -10z m37 -40 c8 -14 -11 -33 -25 -25 -11 7 -4 36 9
36 5 0 12 -5 16 -11z"/>
<path d="M7100 1275 c-6 -31 -9 -59 -7 -62 3 -2 11 21 17 52 6 31 9 59 7 62
-3 2 -11 -21 -17 -52z"/>
<path d="M6545 580 c-40 -16 -64 -55 -80 -128 -16 -77 -19 -139 -9 -167 4 -8
19 -22 35 -30 32 -17 43 -19 35 -6 -4 5 13 7 36 5 l43 -4 -35 15 -35 14 40 -4
40 -5 -30 15 -30 14 30 2 c27 1 26 2 -15 15 l-45 14 50 -5 50 -5 -55 20 -55
19 45 -4 45 -5 -35 15 -35 15 50 -4 50 -5 -40 15 -40 14 50 -5 50 -5 -55 19
-55 19 50 -4 50 -4 -40 15 -40 15 45 -4 45 -4 -48 15 c-59 18 -58 24 1 13 52
-9 46 1 -11 17 l-42 13 50 -6 c54 -6 56 3 3 17 l-33 8 38 -2 c20 -2 37 1 37 5
0 4 -10 8 -22 9 -22 1 -22 1 2 9 l25 7 -27 8 c-15 4 -32 13 -39 21 -13 16 -16
16 -44 4z m52 -36 c-3 -3 -12 -4 -19 -1 -8 3 -5 6 6 6 11 1 17 -2 13 -5z m-50
-240 c-3 -3 -12 -4 -19 -1 -8 3 -5 6 6 6 11 1 17 -2 13 -5z"/>
<path d="M6905 477 c13 -21 13 -31 0 -98 -31 -155 -35 -166 -69 -179 -20 -8
-20 -9 5 -9 14 -1 33 7 41 17 22 24 47 113 54 192 5 54 3 69 -10 83 -25 25
-39 21 -21 -6z"/>
<path d="M3875 2720 c9 -15 85 -52 97 -48 5 2 -12 16 -40 31 -53 29 -67 33
-57 17z"/>
<path d="M4450 2713 c-63 -10 -133 -41 -222 -97 l-97 -61 102 -3 c75 -2 128 3
205 19 102 22 119 38 42 40 -70 1 -75 10 -30 54 38 37 50 57 33 54 -5 -1 -19
-4 -33 -6z"/>
<path d="M4640 2662 c0 -9 64 -42 83 -42 6 0 -5 11 -25 25 -38 26 -58 31 -58
17z"/>
<path d="M4402 2510 c-106 -63 -237 -166 -284 -224 -21 -24 -38 -47 -38 -50 0
-3 18 -6 41 -6 60 0 232 119 286 198 44 64 86 132 81 132 -2 -1 -40 -23 -86
-50z"/>
<path d="M3825 2530 c-38 -5 -207 -22 -375 -40 -168 -17 -507 -53 -755 -79
l-450 -48 -38 33 c-41 38 -35 36 -135 39 -40 1 -77 6 -83 12 -14 14 -118 5
-139 -11 -25 -19 -63 -34 -105 -41 -51 -8 -81 -27 -100 -65 -18 -34 -7 -32
-273 -60 -173 -18 -358 -51 -452 -80 -19 -6 -42 -13 -50 -15 -9 -1 -56 -19
-106 -38 -393 -152 -648 -413 -735 -752 -32 -124 -32 -338 -1 -468 46 -188
115 -316 240 -448 284 -300 721 -414 1339 -350 111 12 211 21 222 21 13 0 26
-12 37 -36 23 -48 85 -77 143 -68 28 5 46 2 57 -7 22 -18 176 -19 182 -1 2 7
10 12 18 12 8 0 17 7 20 15 4 8 16 15 29 15 78 0 137 42 149 105 4 19 12 35
17 35 15 0 754 76 919 95 433 48 530 56 569 44 25 -7 57 -9 88 -4 l48 8 -45
11 c-54 13 -90 36 -90 56 0 8 9 26 20 40 27 34 25 40 -12 41 -31 1 -30 2 13
14 26 7 93 37 149 66 l101 54 -133 5 c-73 3 -139 9 -146 14 -8 4 -12 17 -9 27
5 17 -1 19 -45 19 -49 0 -112 22 -125 43 -3 6 11 25 33 44 21 18 36 33 31 33
-4 0 -58 -17 -120 -39 -168 -57 -183 -59 -104 -10 37 23 66 43 65 44 -2 2 -97
-3 -212 -11 -115 -8 -211 -13 -213 -11 -8 8 334 147 360 147 32 0 60 -13 101
-47 35 -29 42 -24 21 16 -20 39 -10 39 46 1 24 -16 47 -30 50 -30 4 0 2 18 -3
40 -6 23 -8 44 -4 47 3 4 23 -9 42 -28 l36 -34 -6 37 c-8 44 -2 47 32 16 25
-23 26 -22 7 25 -4 9 22 22 81 41 47 15 84 30 81 32 -2 2 -35 0 -73 -6 -110
-15 -109 -16 -129 36 -9 25 -15 47 -13 49 4 4 244 113 367 166 24 11 42 22 39
24 -2 2 -80 16 -174 30 -93 14 -176 27 -184 29 -8 1 28 24 80 49 l95 46 -62 1
c-35 0 -63 3 -63 7 0 4 17 24 37 45 l37 38 -41 0 c-50 0 -61 12 -29 33 27 18
43 66 25 77 -8 5 -3 21 16 54 l28 47 -38 -15 c-58 -25 -61 -20 -16 29 22 24
41 47 41 51 0 3 -26 -9 -57 -27 l-58 -33 28 37 c15 20 26 37 23 37 -3 0 -40
-21 -83 -46 -137 -81 -157 -84 -33 -5 48 31 90 72 158 154 l92 112 -47 22
c-27 13 -61 27 -77 33 l-30 10 44 45 c24 24 42 46 39 49 -2 2 -71 11 -153 20
-83 9 -151 18 -153 20 -4 3 115 45 377 133 l145 48 -65 6 c-36 4 -91 7 -124 8
-47 1 -57 4 -52 16 4 11 -11 20 -60 35 -37 11 -67 19 -68 19 0 -1 -32 -5 -71
-9z m95 -59 c0 -5 -7 -14 -15 -21 -21 -17 -3 -30 45 -30 24 -1 -42 -26 -205
-80 -283 -94 -269 -89 -263 -95 4 -5 154 -21 358 -41 91 -8 97 -11 74 -32 -29
-26 -86 -66 -115 -81 -14 -7 -39 -23 -55 -36 -26 -22 -21 -21 61 11 49 19 96
33 104 32 7 -2 -16 -23 -52 -48 -36 -24 -65 -46 -63 -47 2 -2 43 14 92 35 49
21 96 36 104 34 9 -3 -21 -38 -86 -99 -106 -101 -106 -101 48 7 20 14 21 14
12 -2 -23 -42 -90 -98 -198 -166 -127 -82 -184 -101 -367 -126 l-104 -14 80
-1 80 -2 -60 -31 c-33 -18 -82 -40 -110 -50 -49 -18 -50 -18 -10 -12 22 3 94
28 160 55 153 63 193 70 234 38 16 -13 30 -28 30 -34 1 -5 -20 -31 -46 -57
-26 -26 -43 -48 -37 -48 5 0 42 20 82 44 68 42 88 48 60 17 -16 -17 -12 -15
90 30 102 46 114 28 22 -35 -38 -27 -67 -52 -64 -57 3 -5 33 -9 67 -9 l61 0
-42 -43 c-23 -24 -40 -46 -37 -48 2 -3 -22 -18 -55 -34 -33 -16 -60 -32 -60
-35 0 -4 71 -17 158 -29 229 -33 224 -29 96 -86 -116 -51 -154 -68 -359 -161
l-130 -59 60 -5 60 -5 -125 -53 c-69 -30 -222 -95 -340 -145 -118 -50 -217
-92 -219 -94 -13 -9 28 -8 259 7 140 9 256 16 258 14 2 -1 -28 -20 -65 -41
-37 -22 -93 -55 -123 -73 -30 -19 -80 -49 -110 -67 -30 -18 -50 -33 -44 -33
11 0 126 36 419 130 154 50 183 56 200 45 11 -7 20 -16 19 -21 -1 -5 -38 -31
-83 -59 -45 -27 -76 -51 -69 -53 7 -1 78 8 158 21 127 21 148 22 177 11 18 -8
45 -14 60 -15 25 0 26 -1 8 -9 -11 -5 -121 -30 -244 -57 -254 -54 -254 -56 2
-68 129 -6 147 -9 147 -24 0 -18 13 -16 -530 -72 -47 -5 -107 -12 -135 -15
-27 -3 -135 -14 -240 -24 -104 -10 -268 -27 -362 -36 -95 -10 -175 -16 -177
-13 -2 2 -9 45 -15 96 -14 129 -39 161 -131 173 l-45 5 -17 150 -16 150 24 38
c13 20 28 37 33 37 43 0 377 43 391 50 10 5 20 17 24 26 3 9 -8 145 -24 303
-34 312 -37 325 -97 324 -15 0 -106 -8 -202 -18 l-174 -18 -33 36 c-29 31 -34
44 -34 86 l0 49 48 -18 c26 -10 63 -21 82 -25 59 -12 22 12 -60 38 -46 15 -76
30 -78 40 -3 13 9 11 73 -9 102 -32 160 -45 148 -33 -6 6 -56 25 -113 44 -57
18 -106 39 -110 46 -4 8 -10 39 -13 70 l-5 57 40 5 c44 6 72 27 95 71 15 29
14 98 -3 222 l-6 40 204 22 c455 49 1257 133 1323 139 39 3 72 7 74 9 9 8 71
4 71 -5z m-1750 -99 c26 -21 36 -67 45 -207 6 -93 5 -102 -14 -122 -24 -25
-30 -26 -233 -48 -268 -28 -262 -31 -281 158 -7 69 -10 135 -6 146 16 41 54
53 222 71 217 23 240 24 267 2z m-540 -143 c0 -49 25 -210 37 -232 19 -38 70
-67 119 -67 l40 0 20 -187 c22 -210 24 -201 -48 -202 -39 -1 -78 -31 -78 -61
0 -8 14 -141 30 -295 36 -328 33 -321 131 -310 l57 7 7 -64 c3 -34 13 -114 21
-176 19 -149 19 -142 -17 -142 -18 0 -46 -9 -64 -20 -49 -30 -59 -64 -51 -179
l8 -100 -44 -5 c-494 -62 -778 -50 -1058 43 -444 149 -697 506 -677 956 7 152
25 223 93 360 102 209 266 360 518 480 227 109 395 148 821 194 116 12 135 12
135 0z m462 -439 c10 -91 23 -169 30 -178 7 -8 75 -67 151 -130 76 -63 145
-129 154 -146 20 -37 21 -122 3 -156 -7 -13 -57 -79 -111 -147 -131 -164 -129
-161 -118 -258 5 -44 12 -111 15 -150 3 -38 7 -76 9 -82 3 -7 -3 -13 -13 -13
-12 0 -17 8 -18 28 0 15 -6 89 -14 165 -11 119 -11 140 1 148 12 7 12 9 0 9
-11 0 -9 4 5 15 15 11 16 15 4 15 -9 0 -5 6 10 15 14 8 19 14 11 15 -11 0 -10
4 5 16 18 14 18 15 -6 9 -25 -6 -25 -6 -3 7 12 7 22 17 21 22 0 5 6 12 13 17
7 4 14 14 15 22 1 11 -6 12 -41 4 -33 -8 -49 -6 -73 6 -17 8 -32 13 -35 11 -3
-3 9 -130 32 -324 6 -47 13 -113 17 -147 l6 -63 -36 0 c-20 0 -39 6 -41 13 -2
6 -14 104 -25 217 -25 254 -118 1123 -124 1168 -5 31 -4 32 33 32 l38 0 11
-97 c6 -54 19 -172 28 -263 10 -96 22 -169 28 -174 9 -6 6 -21 -12 -55 -34
-67 -29 -168 13 -236 31 -50 55 -68 55 -41 0 13 8 15 43 10 52 -8 55 -11 31
-29 -28 -21 -10 -18 39 6 101 51 156 124 143 193 -12 64 -101 137 -196 161
-24 6 -24 5 -6 -9 11 -9 14 -16 8 -16 -7 0 -28 -7 -48 -15 -47 -19 -48 -19
-48 12 0 38 35 55 94 48 31 -3 40 -2 30 5 -8 5 -26 10 -40 11 l-25 1 25 8 25
8 -25 2 c-23 1 -23 2 -5 9 17 7 15 9 -15 16 -30 7 -32 9 -15 16 17 6 16 8 -10
9 -30 2 -30 2 -5 10 16 5 19 8 8 9 -9 1 -20 6 -24 13 -5 7 -2 9 7 4 8 -4 6 -1
-4 7 -14 11 -15 16 -5 20 9 4 8 6 -4 6 -20 1 -24 17 -43 194 -18 168 -18 170
-2 165 8 -3 18 -59 29 -168z m-175 87 c1 -57 126 -1245 139 -1330 5 -34 4 -38
-12 -35 -15 3 -20 16 -25 68 -4 36 -9 88 -12 115 -3 28 -13 122 -22 210 -18
177 -23 201 -34 171 -23 -62 -71 211 -49 276 l11 32 13 -34 13 -35 -5 50 c-3
28 -16 156 -29 285 -30 285 -30 290 -7 290 14 0 17 -10 19 -63z m689 -308 c9
-15 66 -550 60 -557 -6 -5 -319 -41 -325 -36 -10 8 14 22 51 29 42 8 43 8 13
15 l-30 7 35 10 c19 6 27 12 18 12 -28 1 -21 18 10 26 25 7 25 8 7 16 -20 8
-20 8 2 14 12 4 19 13 17 20 -7 17 9 26 71 41 27 7 40 13 28 13 -23 1 -26 13
-39 143 l-6 66 28 5 c16 2 -1 5 -38 6 -53 1 -68 4 -68 16 0 8 -7 15 -16 15
-10 0 -14 6 -10 15 4 11 -2 15 -21 15 -21 0 -24 2 -13 15 11 13 8 15 -16 15
-27 0 -27 1 -8 15 18 14 17 14 -16 15 -29 0 -77 17 -60 21 3 0 73 9 155 19 83
10 153 18 157 19 4 0 10 -4 14 -10z m-736 -76 c0 -5 -14 -16 -30 -25 -37 -21
-42 -70 -10 -90 25 -16 26 -34 3 -47 -17 -9 -17 -11 -1 -23 21 -16 38 -198 19
-198 -6 0 -11 -4 -11 -10 0 -5 6 -10 14 -10 7 0 19 -7 26 -15 10 -12 9 -18 -8
-32 -30 -26 -20 -79 17 -89 14 -4 29 -7 34 -6 4 1 7 -2 7 -7 0 -11 -88 -26
-97 -17 -6 6 -61 488 -63 543 0 17 7 23 33 26 59 7 67 7 67 0z m3 -59 c8 -8
-3 -34 -14 -34 -5 0 -9 9 -9 20 0 19 11 26 23 14z m629 -108 c12 -89 13 -139
0 -144 -8 -2 -11 15 -11 60 1 35 -4 76 -10 91 -14 37 -14 50 1 45 7 -3 16 -26
20 -52z m-248 3 c23 -11 56 -62 56 -89 0 -28 -34 -73 -66 -86 -44 -18 -77 -10
-109 28 -70 83 19 192 119 147z m-14 -309 c-8 -5 -19 -10 -25 -10 -5 0 -3 5 5
10 8 5 20 10 25 10 6 0 3 -5 -5 -10z m-320 -15 c0 -8 -4 -15 -9 -15 -13 0 -22
16 -14 24 11 11 23 6 23 -9z m458 -539 c18 -24 42 -170 42 -262 0 -49 -33 -79
-95 -87 -156 -20 -359 -37 -376 -32 -36 12 -49 50 -63 176 -20 175 -8 191 144
205 36 3 90 9 120 14 30 4 90 8 132 9 70 1 78 -1 96 -23z"/>
<path d="M3013 2068 c-49 -54 -137 -177 -131 -184 3 -2 30 26 60 63 57 71 122
163 115 163 -3 0 -22 -19 -44 -42z"/>
<path d="M2920 2035 c-24 -31 -40 -58 -37 -62 7 -7 36 26 68 75 35 55 15 46
-31 -13z"/>
<path d="M3023 2003 c-50 -60 -77 -102 -71 -109 5 -5 56 54 97 114 36 52 18
48 -26 -5z"/>
<path d="M3071 1975 c-13 -20 -22 -38 -19 -41 7 -6 58 53 58 67 0 18 -16 8
-39 -26z"/>
<path d="M3765 1941 c-22 -10 -56 -31 -75 -46 -30 -24 -32 -26 -10 -20 26 7
130 71 130 80 0 7 0 7 -45 -14z"/>
<path d="M2290 1884 c0 -5 63 -34 75 -34 15 0 2 18 -20 28 -27 13 -55 16 -55
6z"/>
<path d="M2175 1861 c7 -12 94 -41 119 -40 15 0 9 6 -19 19 -47 21 -108 34
-100 21z"/>
<path d="M2200 1690 c0 -9 55 -30 78 -30 26 0 1 17 -40 28 -21 6 -38 7 -38 2z"/>
<path d="M3545 1568 c-22 -12 -35 -23 -28 -25 11 -4 93 33 93 42 0 10 -27 3
-65 -17z"/>
<path d="M3280 1539 c-69 -19 -70 -22 -5 -19 36 2 95 24 95 35 0 7 -18 4 -90
-16z"/>
<path d="M2931 1465 c13 -22 28 -48 33 -58 6 -10 29 -29 52 -42 22 -13 53 -42
67 -64 15 -23 32 -41 39 -41 6 0 51 -42 101 -92 l89 -93 -61 79 c-34 44 -76
90 -93 102 -17 13 -53 45 -80 71 -26 27 -64 64 -85 83 -21 19 -48 49 -61 65
l-23 30 22 -40z"/>
<path d="M3210 1310 c47 -57 96 -100 113 -100 6 0 -22 34 -63 75 -85 85 -112
99 -50 25z"/>
<path d="M3051 1223 c34 -38 62 -62 74 -63 5 0 -11 20 -35 45 -47 48 -80 63
-39 18z"/>
<path d="M2940 1128 c0 -38 22 -118 38 -130 14 -11 15 -10 9 6 -4 11 -12 40
-18 64 -12 53 -28 88 -29 60z"/>
<path d="M3000 1088 c0 -32 9 -58 21 -58 10 0 2 45 -12 70 -6 11 -8 8 -9 -12z"/>
<path d="M2895 1089 c-3 -8 3 -32 14 -54 19 -37 20 -38 21 -14 0 35 -27 89
-35 68z"/>
<path d="M3056 1055 c4 -8 8 -15 10 -15 2 0 4 7 4 15 0 8 -4 15 -10 15 -5 0
-7 -7 -4 -15z"/>
<path d="M2860 1050 c0 -8 5 -22 10 -30 9 -13 10 -13 10 0 0 8 -5 22 -10 30
-9 13 -10 13 -10 0z"/>
<path d="M2710 703 c-19 -3 -39 -8 -43 -12 -5 -5 45 -7 110 -6 150 4 153 4
128 15 -20 9 -131 10 -195 3z"/>
<path d="M3065 670 c-8 -12 131 -12 160 0 13 6 -9 9 -67 9 -48 1 -90 -3 -93
-9z"/>
<path d="M2574 585 c-10 -8 -14 -15 -8 -15 5 0 19 7 30 15 10 8 14 15 8 15 -5
0 -19 -7 -30 -15z"/>
<path d="M2678 581 c-58 -20 -90 -48 -43 -37 42 10 95 36 95 47 0 5 -1 8 -2 8
-2 -1 -24 -9 -50 -18z"/>
<path d="M2070 2360 c0 -5 -15 -11 -32 -11 l-33 -2 35 -6 35 -7 -45 -11 -45
-11 45 -2 45 -3 -35 -7 -35 -7 45 -3 45 -2 -50 -13 -50 -13 40 -2 40 -3 -35
-7 -35 -7 45 -3 45 -2 -45 -11 -45 -11 35 -7 35 -6 -30 -3 c-25 -3 -23 -4 15
-10 37 -6 39 -7 15 -9 -16 -1 -39 -7 -50 -12 -15 -7 -6 -8 30 -5 33 3 43 2 30
-4 -11 -5 -31 -10 -45 -11 -16 -1 -8 -5 20 -9 35 -5 38 -7 15 -9 -16 -1 -37
-6 -45 -12 -11 -7 -1 -8 35 -5 l50 5 -50 -13 -50 -14 40 -3 c38 -2 39 -2 7 -6
-18 -2 -30 -8 -27 -13 3 -5 22 -7 43 -5 32 4 30 2 -13 -9 l-50 -14 48 -1 c26
-1 47 -6 47 -11 0 -6 13 -4 31 5 45 24 61 69 49 141 -6 33 -10 76 -10 97 0 29
-7 46 -29 68 -28 28 -81 41 -81 19z"/>
<path d="M1724 2295 c-14 -22 -16 -41 -10 -117 7 -108 29 -161 66 -166 25 -3
25 -3 4 12 -25 18 -31 45 -40 172 -5 77 -4 93 11 107 14 15 14 17 1 17 -9 0
-23 -11 -32 -25z"/>
<path d="M1250 2144 c-232 -31 -485 -112 -649 -209 -45 -26 -81 -49 -81 -51 0
-13 58 -53 77 -54 12 0 25 -4 28 -10 11 -17 -51 -11 -100 10 -50 22 -51 22
-109 -24 -37 -30 -156 -163 -156 -176 0 -3 34 -23 76 -43 42 -21 74 -40 71
-43 -2 -3 -42 5 -88 16 l-84 22 -16 -21 c-21 -25 -77 -177 -85 -231 -7 -42 -8
-41 51 -56 29 -7 29 -7 -17 -17 l-48 -9 0 -49 0 -49 48 -1 c26 0 63 -7 82 -14
l35 -14 -51 1 c-28 1 -66 -5 -84 -12 l-33 -13 7 -71 c8 -84 18 -96 90 -97 l51
-1 -45 -15 c-25 -8 -50 -16 -57 -18 -16 -5 15 -97 62 -181 29 -51 41 -64 60
-64 21 0 24 -3 19 -28 -5 -25 3 -37 79 -108 81 -76 200 -157 250 -170 14 -3
55 4 92 15 37 12 79 21 94 20 22 0 20 -2 -14 -13 -22 -7 -55 -21 -74 -30 -42
-22 -37 -26 80 -59 169 -49 268 -62 489 -60 113 1 228 5 255 10 l50 9 -47 18
c-27 10 -48 22 -48 26 0 4 21 13 46 19 l47 12 -7 45 c-3 25 -10 53 -15 62 -5
10 -57 38 -115 62 -58 24 -106 49 -106 55 0 6 -27 21 -60 34 -33 13 -58 26
-56 29 4 4 191 -11 299 -25 l47 -6 0 61 0 61 -132 86 c-180 117 -197 129 -194
132 2 2 57 -15 122 -38 151 -52 174 -59 174 -51 0 4 -43 40 -95 81 -95 73
-112 93 -61 70 23 -11 31 -9 69 18 37 27 43 37 48 79 3 27 2 55 -4 62 -7 9 -4
12 9 12 13 1 9 6 -15 19 -27 15 -30 19 -16 24 9 4 25 7 36 7 30 0 22 13 -29
45 -46 30 -47 30 -19 33 28 3 28 4 10 24 -13 15 -15 22 -5 25 19 7 14 20 -9
26 -15 4 -34 -6 -67 -36 -33 -30 -42 -35 -31 -17 53 85 110 203 107 221 -2 18
-22 2 -112 -96 -60 -65 -107 -112 -104 -104 3 8 51 90 107 184 55 93 99 171
96 173 -2 2 -44 -19 -94 -46 -50 -28 -91 -49 -91 -46 0 2 36 39 80 83 44 43
80 82 80 86 0 7 -29 2 -67 -11 -12 -5 -6 6 16 29 38 40 31 46 -26 22 -52 -22
-52 -20 2 35 53 54 49 58 -30 35 l-50 -15 50 47 c48 44 49 46 20 40 -16 -4
-52 -13 -78 -21 -58 -19 -54 -10 19 40 30 21 51 40 46 42 -5 1 -38 -4 -73 -12
-35 -8 -66 -13 -68 -11 -2 2 49 30 113 62 64 32 116 61 116 65 0 4 -21 8 -47
10 l-48 3 45 27 45 27 -40 0 c-22 -1 -87 -7 -145 -15z m41 -371 c-26 -50 -61
-100 -61 -89 0 13 73 136 78 132 2 -2 -6 -21 -17 -43z m-396 -148 c38 -35 68
-66 65 -69 -3 -2 -39 26 -80 64 -41 38 -70 69 -65 69 6 0 41 -29 80 -64z m505
-61 c-11 -29 -40 -73 -40 -61 0 11 39 87 45 87 2 0 0 -12 -5 -26z m-79 -38
c-21 -48 -38 -65 -21 -21 6 14 15 37 20 51 6 15 13 24 16 21 3 -3 -3 -26 -15
-51z m-72 -37 c-6 -24 -14 -38 -16 -32 -5 15 17 87 24 80 2 -3 -1 -25 -8 -48z
m-60 -217 c17 -12 36 -32 42 -44 9 -16 0 -12 -32 16 -43 36 -68 71 -68 91 0 6
6 -1 13 -15 8 -14 28 -35 45 -48z m66 28 c16 -16 26 -32 24 -35 -3 -2 -21 11
-39 30 -19 19 -29 35 -24 35 6 0 23 -13 39 -30z m-400 -297 c-60 -115 -92
-161 -53 -78 42 90 101 196 106 191 2 -3 -21 -54 -53 -113z m100 72 c-16 -41
-85 -163 -85 -154 0 18 86 189 96 189 2 0 -2 -16 -11 -35z m-134 -32 c-24 -47
-50 -82 -51 -67 0 12 57 104 65 104 3 0 -3 -17 -14 -37z m165 -30 c-13 -26
-32 -57 -41 -68 -9 -11 0 13 21 53 20 40 39 71 41 68 2 -2 -7 -26 -21 -53z
m311 -88 c20 -8 34 -18 31 -21 -7 -6 -78 22 -78 30 0 9 7 7 47 -9z m-852 -137
c4 -35 2 -46 -4 -33 -4 11 -11 45 -15 75 -4 40 -3 49 4 33 5 -13 12 -46 15
-75z m909 -85 c53 -26 93 -49 91 -51 -5 -5 -255 115 -255 122 0 8 52 -14 164
-71z m-815 -97 c6 -22 6 -35 2 -30 -5 5 -14 27 -20 48 -6 22 -6 35 -2 30 5 -5
14 -27 20 -48z m-43 -50 c20 -74 17 -100 -6 -51 -22 48 -38 152 -19 121 6 -10
18 -42 25 -70z"/>
<path d="M1493 963 c-42 -5 -42 -18 -2 -32 48 -16 59 -14 59 14 0 14 -5 24
-12 23 -7 0 -28 -3 -45 -5z"/>
<path d="M2457 1532 c-27 -17 -31 -30 -21 -69 8 -27 54 -39 83 -21 33 20 29
74 -7 92 -25 13 -31 12 -55 -2z m43 -47 c0 -8 -7 -15 -15 -15 -8 0 -15 7 -15
15 0 8 7 15 15 15 8 0 15 -7 15 -15z"/>
<path d="M2602 1335 c-1 -22 3 -58 7 -80 l9 -40 0 40 c1 22 -3 58 -7 80 l-9
40 0 -40z"/>
<path d="M2494 1112 c-51 -48 13 -127 70 -85 42 30 29 85 -24 98 -17 4 -32 0
-46 -13z m52 -33 c10 -17 -13 -36 -27 -22 -12 12 -4 33 11 33 5 0 12 -5 16
-11z"/>
<path d="M1822 1235 c0 -22 4 -53 8 -70 l8 -30 0 30 c1 17 -3 48 -7 70 l-9 40
0 -40z"/>
<path d="M2168 1305 c-47 -26 -46 -99 2 -125 79 -42 154 64 84 119 -31 24 -49
26 -86 6z m63 -25 c21 -12 25 -50 7 -68 -39 -39 -100 17 -63 58 21 23 29 24
56 10z"/>
<path d="M2274 471 c7 -11 -16 -20 -52 -23 -17 0 -10 -4 18 -8 37 -6 39 -7 15
-9 -16 -1 -39 -6 -50 -11 -17 -7 -14 -9 15 -10 l35 -2 -30 -8 c-27 -7 -25 -8
20 -10 l50 -3 -45 -7 -45 -7 55 -2 55 -3 -50 -14 -50 -13 49 4 c56 6 55 -4 -1
-15 l-38 -8 35 -2 35 -2 -45 -13 -45 -13 40 -2 40 -3 -35 -7 -35 -7 45 -3 45
-2 -45 -11 -45 -11 35 -7 35 -6 -35 -3 c-32 -3 -30 -4 15 -10 36 -5 42 -7 20
-9 -16 -1 -39 -6 -50 -11 -14 -7 -8 -8 20 -4 30 4 36 3 25 -5 -8 -6 -26 -11
-40 -12 -14 -1 -6 -5 20 -9 30 -5 36 -7 18 -8 -16 -1 -28 -7 -28 -12 0 -7 14
-9 38 -5 27 5 33 4 22 -4 -26 -18 17 -14 45 5 37 24 44 60 34 160 -12 114 -24
143 -65 160 -38 16 -58 18 -50 5z m13 -57 c-3 -3 -12 -4 -19 -1 -8 3 -5 6 6 6
11 1 17 -2 13 -5z"/>
<path d="M1924 395 c-14 -21 -16 -41 -11 -103 11 -137 31 -182 80 -182 22 0
21 1 -2 13 -30 15 -39 44 -47 169 -5 72 -4 101 6 113 8 10 9 15 1 15 -6 0 -18
-11 -27 -25z"/>
<path d="M4540 2365 c-24 -25 -42 -47 -39 -50 3 -2 25 15 49 40 24 25 42 47
39 50 -3 2 -25 -15 -49 -40z"/>
<path d="M4433 2105 c-92 -22 -233 -94 -233 -118 0 -6 7 -18 15 -27 14 -16 12
-20 -26 -46 l-42 -29 28 -5 29 -5 -42 -19 c-46 -21 -54 -36 -19 -36 47 0 49
-14 10 -65 -20 -27 -30 -46 -22 -43 8 3 78 44 156 90 78 47 193 104 255 129
112 44 113 44 69 47 l-43 3 22 24 c29 31 21 58 -15 49 -19 -5 -24 -3 -20 8 7
17 -11 69 -22 67 -5 -1 -49 -11 -100 -24z"/>
<path d="M4110 1632 c0 -10 58 -92 65 -92 7 0 -12 46 -31 75 -16 25 -34 33
-34 17z"/>
<path d="M4196 828 c17 -30 117 -148 121 -144 3 3 -4 18 -16 34 -12 17 -21 33
-21 36 0 4 23 -5 51 -20 28 -14 53 -23 56 -20 5 5 -54 44 -117 77 -21 11 -44
27 -51 35 -14 17 -33 19 -23 2z"/>
<path d="M4510 576 c-52 -18 -114 -43 -138 -55 -48 -24 -57 -47 -14 -36 44 10
230 96 243 111 15 18 19 19 -91 -20z"/>
<path d="M4350 311 c-13 -10 -13 -12 0 -21 17 -11 44 -13 145 -11 150 4 126
29 -35 37 -59 3 -101 1 -110 -5z"/>
<path d="M3346 191 c-14 -22 133 -61 224 -61 l35 1 -26 14 c-35 19 -167 55
-201 55 -15 0 -29 -4 -32 -9z"/>
<path d="M3870 195 c0 -2 19 -15 43 -28 30 -18 62 -26 115 -30 39 -2 72 -3 72
-1 0 11 -65 34 -98 34 -22 0 -56 7 -75 15 -37 15 -57 19 -57 10z"/>
</g>
</svg>
