<?xml version="1.0" standalone="no"?>
<!DOCTYPE svg PUBLIC "-//W3C//DTD SVG 20010904//EN"
 "http://www.w3.org/TR/2001/REC-SVG-20010904/DTD/svg10.dtd">
<svg version="1.0" xmlns="http://www.w3.org/2000/svg"
 width="920.000000pt" height="447.000000pt" viewBox="0 0 920.000000 447.000000"
 preserveAspectRatio="xMidYMid meet">

<g transform="translate(0.000000,447.000000) scale(0.100000,-0.100000)"
fill="#ffffff" stroke="none">
<path d="M1425 4179 c-554 -81 -1007 -507 -1127 -1060 -31 -144 -31 -407 0
-549 112 -513 491 -906 998 -1035 108 -28 267 -48 347 -43 l58 3 2 133 2 132
-93 0 c-160 0 -376 56 -512 132 -205 115 -379 306 -469 515 -69 160 -96 306
-88 482 22 505 371 914 867 1016 125 26 317 24 444 -4 406 -92 715 -397 819
-811 30 -122 30 -368 0 -491 -55 -218 -155 -392 -309 -540 -66 -62 -175 -145
-203 -154 -11 -3 -22 -13 -25 -21 -10 -25 -37 -253 -34 -280 l3 -25 85 41
c397 192 663 535 756 973 25 115 25 379 1 500 -115 572 -570 1005 -1142 1087
-83 12 -296 11 -380 -1z"/>
<path d="M4360 4170 c-446 -81 -828 -388 -1005 -809 -32 -75 -85 -264 -85
-302 0 -11 9 -20 23 -23 12 -3 60 -12 107 -20 47 -9 95 -19 106 -22 19 -5 23
-1 29 38 13 76 66 231 108 312 262 506 872 719 1397 488 234 -104 418 -282
531 -517 68 -141 99 -261 106 -416 15 -331 -98 -615 -337 -843 -70 -66 -177
-147 -212 -158 -13 -5 -34 -113 -43 -226 -9 -99 -9 -99 108 -41 135 68 246
148 357 259 355 354 483 852 344 1338 -132 458 -523 821 -1004 933 -129 30
-391 35 -530 9z"/>
<path d="M7415 4184 c-233 -34 -441 -117 -628 -252 -96 -69 -245 -222 -315
-324 -100 -146 -194 -373 -217 -525 -6 -40 -5 -43 17 -43 12 0 70 -11 127 -25
57 -14 105 -24 106 -23 1 2 10 37 19 78 95 427 420 746 851 835 93 19 291 22
380 6 358 -66 633 -269 794 -587 48 -95 76 -179 97 -293 24 -125 15 -333 -19
-463 -124 -473 -555 -808 -1042 -808 -437 0 -842 272 -1004 675 -21 53 -43
101 -48 105 -10 9 -156 62 -230 84 -63 18 -62 21 -33 -95 81 -316 251 -575
501 -764 353 -266 806 -342 1227 -205 199 64 377 174 533 330 243 243 376 540
396 888 36 639 -408 1230 -1035 1378 -88 21 -138 26 -277 29 -93 2 -183 1
-200 -1z"/>
<path d="M3040 2978 c-1 -2 -2 -62 -3 -134 l-2 -131 125 -6 c131 -7 211 -22
322 -62 303 -109 533 -336 644 -635 l32 -85 108 -36 c60 -20 126 -39 147 -43
l38 -7 -7 38 c-17 92 -69 246 -117 343 -115 232 -281 416 -500 552 -172 107
-382 178 -587 198 -90 9 -200 13 -200 8z"/>
<path d="M6020 2979 c-1 -2 -2 -64 -3 -137 l-2 -132 86 0 c167 0 338 -43 499
-126 240 -124 430 -344 515 -594 21 -63 24 -66 71 -83 69 -26 235 -70 241 -63
3 2 -7 53 -22 113 -64 256 -216 507 -410 676 -245 214 -516 323 -852 343 -68
4 -123 5 -123 3z"/>
<path d="M2515 2832 c-376 -197 -627 -521 -717 -922 -20 -90 -23 -132 -23
-290 1 -163 4 -198 27 -296 88 -373 328 -690 668 -881 88 -50 256 -114 354
-135 133 -29 372 -35 506 -14 283 45 548 184 753 395 152 157 265 347 325 548
29 98 49 193 40 193 -13 0 -228 41 -241 46 -11 4 -19 -16 -36 -88 -75 -322
-287 -592 -576 -733 -423 -207 -929 -118 -1252 218 -135 142 -221 292 -271
476 -23 86 -26 114 -26 276 -1 166 1 187 27 279 64 229 186 418 368 566 40 32
91 69 115 82 39 20 45 28 54 73 7 27 14 96 17 153 5 83 3 102 -8 102 -8 0 -55
-22 -104 -48z"/>
<path d="M5511 2840 c-332 -161 -600 -475 -706 -828 -81 -274 -71 -589 28
-853 134 -355 408 -639 752 -779 52 -21 118 -45 147 -54 157 -45 412 -59 583
-31 512 84 935 460 1079 957 25 88 42 178 34 178 -13 0 -228 41 -241 46 -11 4
-19 -12 -32 -71 -64 -290 -221 -522 -463 -684 -412 -276 -980 -224 -1340 123
-169 162 -274 359 -318 593 -25 132 -15 347 21 468 58 197 126 320 250 453 77
82 214 194 254 207 28 9 40 66 55 268 3 32 0 47 -8 47 -7 0 -49 -18 -95 -40z"/>
<path d="M3275 2593 c64 -352 295 -695 597 -886 208 -132 455 -207 691 -210
l118 -2 2 131 2 131 -130 6 c-267 12 -497 107 -685 285 -139 130 -237 278
-290 438 l-21 63 -62 20 c-72 23 -207 61 -220 61 -5 0 -6 -17 -2 -37z"/>
</g>
</svg>
