<?xml version="1.0" standalone="no"?>
<!DOCTYPE svg PUBLIC "-//W3C//DTD SVG 20010904//EN"
 "http://www.w3.org/TR/2001/REC-SVG-20010904/DTD/svg10.dtd">
<svg version="1.0" xmlns="http://www.w3.org/2000/svg"
 width="512.000000pt" height="512.000000pt" viewBox="0 0 512.000000 512.000000"
 preserveAspectRatio="xMidYMid meet">

<g transform="translate(0.000000,512.000000) scale(0.100000,-0.100000)"
fill="#000000" stroke="none">
<path d="M837 4924 c-3 -4 -28 -10 -54 -15 -26 -5 -141 -56 -256 -114 -114
-58 -218 -105 -230 -105 -29 0 -106 -24 -148 -46 -98 -50 -149 -127 -149 -224
0 -79 45 -169 108 -215 44 -33 52 -35 128 -35 80 0 154 19 154 40 0 5 10 12
23 15 16 4 30 24 50 70 23 54 27 78 27 153 l0 89 46 7 c25 3 92 30 152 61 73
38 124 58 160 62 28 3 52 3 52 0 0 -28 76 -404 131 -652 39 -170 99 -452 134
-625 227 -1123 276 -1362 300 -1467 5 -21 2 -23 -37 -23 -63 0 -156 -25 -181
-47 -12 -11 -62 -47 -112 -81 -84 -56 -163 -129 -213 -196 -20 -26 -22 -41
-22 -148 l0 -120 43 -52 c23 -28 45 -52 48 -54 4 -2 32 -18 63 -37 71 -42 132
-55 312 -62 225 -9 464 19 876 105 176 36 188 38 303 30 263 -16 1984 -53
2067 -44 26 3 61 12 77 21 83 42 80 176 -6 232 -24 16 -64 19 -383 25 -195 4
-708 10 -1140 13 l-785 6 -170 -37 c-93 -20 -197 -41 -230 -46 -33 -5 -87 -16
-120 -25 -92 -22 -243 -34 -429 -34 -144 1 -175 4 -212 21 -25 10 -47 26 -50
35 -10 26 16 63 71 102 27 20 66 51 85 69 21 19 59 39 95 50 70 21 111 46 120
74 7 23 44 37 55 21 4 -7 25 -11 48 -10 34 2 47 -2 70 -24 16 -15 42 -31 58
-35 44 -12 373 3 809 37 518 41 810 55 982 47 118 -5 164 -2 270 15 114 18
154 20 373 15 135 -3 291 -9 347 -12 171 -10 232 25 233 133 1 62 16 123 39
154 12 17 21 44 21 66 1 72 50 328 80 423 33 100 96 273 137 375 36 89 41 115
54 290 24 329 -10 588 -96 725 -44 71 -66 77 -355 101 -129 10 -281 26 -337
34 -78 11 -117 12 -159 4 -30 -6 -101 -9 -157 -8 -334 7 -2425 -37 -2590 -54
l-119 -13 -10 25 c-23 59 -58 218 -73 328 -26 190 -54 346 -69 373 -7 14 -16
36 -19 50 -4 14 -22 50 -42 80 -34 53 -37 55 -107 72 -76 18 -130 23 -141 12z
m678 -1129 c83 -9 265 -18 406 -22 l256 -6 7 -86 c4 -47 18 -142 31 -211 29
-146 47 -312 39 -345 -5 -20 -13 -23 -87 -29 -45 -4 -122 -14 -172 -21 -49 -8
-129 -19 -178 -25 -64 -8 -112 -21 -179 -51 -50 -22 -93 -38 -95 -35 -8 8
-121 461 -158 636 -19 91 -38 175 -40 188 -6 26 -19 26 170 7z m2344 -22 l122
-6 -5 -46 c-3 -25 -8 -158 -11 -296 -5 -247 -6 -250 -28 -258 -12 -5 -125 -5
-252 -1 -126 4 -253 7 -281 6 l-51 -3 -7 93 c-3 51 -15 165 -26 252 -11 88
-20 181 -20 207 0 44 2 48 28 52 46 7 403 7 531 0z m716 -19 c127 -9 231 -17
232 -18 13 -10 26 -181 26 -336 0 -282 -14 -381 -68 -494 -24 -50 -62 -145
-86 -211 -23 -66 -54 -145 -69 -175 -15 -30 -30 -82 -34 -115 -12 -111 -48
-332 -56 -345 -6 -10 -37 -10 -153 -1 -80 6 -177 11 -216 11 -39 0 -71 2 -71
4 0 3 7 33 15 68 8 35 19 101 24 148 10 81 41 496 41 552 0 31 0 31 190 53 74
8 158 22 186 30 52 15 115 52 121 71 6 18 -108 71 -190 88 -42 9 -124 19 -182
23 l-105 6 0 335 0 335 83 -6 c45 -3 186 -14 312 -23z m-1435 -1 c0 -10 7 -83
16 -163 8 -80 21 -199 28 -265 7 -66 15 -127 17 -135 3 -13 -21 -16 -156 -22
-88 -3 -216 -11 -285 -17 -69 -6 -159 -11 -201 -11 l-75 0 -67 223 c-36 122
-73 254 -82 292 -8 39 -18 80 -20 93 l-5 22 415 0 c389 0 415 -1 415 -17z m84
-905 c3 -24 8 -124 11 -223 3 -99 13 -259 21 -355 9 -96 16 -193 17 -215 l2
-40 -435 -41 c-239 -23 -534 -49 -655 -58 -143 -11 -248 -24 -300 -37 -44 -12
-88 -22 -99 -23 -16 -1 -25 28 -72 244 -50 225 -123 581 -139 673 l-6 39 43
-9 c54 -10 303 -10 519 1 l166 9 7 -29 c4 -16 11 -165 16 -330 5 -166 14 -331
20 -368 11 -62 14 -66 59 -96 57 -36 87 -38 132 -7 61 40 74 82 74 242 0 224
-7 334 -25 425 -10 47 -21 109 -24 137 -6 49 -5 53 16 57 82 17 369 39 585 44
l62 2 5 -42z m714 -52 c2 -49 -4 -175 -13 -281 -8 -105 -15 -250 -15 -322 l0
-131 -27 -6 c-80 -17 -269 -36 -360 -36 l-103 0 0 38 c0 20 -7 132 -15 247 -8
116 -18 294 -21 398 l-7 187 279 -2 279 -3 3 -89z"/>
<path d="M1978 1085 c-2 -3 -41 -11 -85 -19 -49 -9 -115 -30 -172 -57 -84 -39
-96 -48 -141 -108 -27 -36 -57 -86 -65 -110 -22 -64 -19 -147 7 -201 13 -27
22 -69 24 -105 4 -100 22 -143 90 -212 54 -54 68 -62 120 -73 33 -7 82 -10
112 -6 89 10 225 47 247 67 11 9 32 21 47 24 37 9 149 142 192 227 42 83 59
161 54 247 -4 83 -40 158 -113 239 -51 56 -54 57 -137 75 -82 16 -169 22 -180
12z m130 -255 c30 -11 32 -15 32 -58 -1 -61 -27 -117 -81 -171 -78 -78 -74
-77 -175 -31 -153 71 -171 89 -140 148 29 55 96 102 173 122 45 11 145 6 191
-10z"/>
<path d="M4160 1071 c-19 -5 -77 -17 -129 -26 -117 -22 -220 -75 -302 -155
-69 -68 -79 -104 -79 -287 0 -122 1 -127 27 -162 43 -56 122 -131 139 -131 8
0 29 -7 46 -16 49 -26 240 -15 336 19 40 14 85 35 101 46 16 12 33 21 38 21 5
0 22 13 38 30 16 16 35 30 42 30 18 0 98 167 118 245 20 77 19 100 -5 170 -11
32 -20 69 -20 82 0 12 -4 23 -9 23 -5 0 -31 20 -59 45 -27 24 -61 49 -75 54
-37 14 -166 22 -207 12z m120 -273 c0 -59 -23 -104 -82 -162 l-60 -59 -74 7
c-126 12 -154 29 -154 99 0 39 17 57 80 84 91 40 137 51 213 52 74 1 77 0 77
-21z"/>
</g>
</svg>
