<?xml version="1.0" standalone="no"?>
<!DOCTYPE svg PUBLIC "-//W3C//DTD SVG 20010904//EN"
 "http://www.w3.org/TR/2001/REC-SVG-20010904/DTD/svg10.dtd">
<svg version="1.0" xmlns="http://www.w3.org/2000/svg"
 width="426.000000pt" height="541.000000pt" viewBox="0 0 426.000000 541.000000"
 preserveAspectRatio="xMidYMid meet">

<g transform="translate(0.000000,541.000000) scale(0.100000,-0.100000)"
fill="#000000" stroke="none">
<path d="M2105 5400 c-111 -23 -190 -66 -263 -144 -61 -64 -96 -135 -117 -233
-18 -85 -18 -140 -1 -225 51 -238 239 -388 487 -388 106 0 191 24 275 78 213
138 287 430 166 656 -34 65 -133 163 -199 199 -102 54 -245 78 -348 57z"/>
<path d="M985 4295 c-42 -23 -112 -93 -130 -131 -33 -70 -11 -146 65 -222 67
-67 120 -80 645 -161 284 -44 394 -70 410 -95 17 -26 32 -125 40 -267 l6 -106
-288 -82 c-307 -88 -538 -168 -649 -223 -59 -30 -72 -42 -94 -84 -24 -46 -25
-56 -24 -214 1 -112 10 -235 28 -385 47 -382 72 -486 127 -543 35 -36 75 -46
159 -40 74 5 106 27 140 94 22 43 25 65 29 174 2 71 -4 215 -14 333 -11 124
-15 211 -9 216 12 10 769 207 901 235 56 11 105 18 108 14 7 -7 -30 -155 -90
-358 -74 -249 -87 -311 -87 -435 1 -150 49 -535 94 -745 31 -151 88 -225 193
-255 93 -28 168 2 215 85 24 43 25 52 23 195 -1 100 -13 245 -37 433 l-35 283
140 356 c152 390 201 532 220 638 15 89 7 216 -25 375 -14 69 -29 157 -32 197
-9 100 3 117 93 132 113 18 235 29 508 46 574 34 635 60 635 268 0 102 -15
126 -93 155 -117 44 -364 57 -1322 72 -942 14 -1580 34 -1770 55 -36 4 -59 1
-80 -10z"/>
<path d="M37 2211 c-74 -88 -22 -277 112 -411 96 -95 503 -315 1561 -843 1288
-644 1385 -685 1650 -694 224 -8 258 8 247 121 -5 61 -27 81 -100 94 -29 6
-92 18 -142 27 -195 36 -670 252 -1893 864 -1033 516 -1092 552 -1231 749 -51
72 -98 111 -144 119 -28 4 -37 0 -60 -26z"/>
<path d="M300 1428 c-136 -69 -115 -306 31 -349 68 -21 140 2 204 64 87 85 95
179 21 253 -57 57 -176 72 -256 32z"/>
<path d="M2503 399 c-71 -21 -142 -125 -143 -207 0 -121 119 -216 230 -183 80
24 160 122 160 196 0 45 -32 106 -75 143 -56 50 -116 67 -172 51z"/>
</g>
</svg>
